<svg fill="none" height="31" viewBox="0 0 143 31" width="143" xmlns="http://www.w3.org/2000/svg"><path d="M69.892 0.619521C51.24 10.5723 32.5824 -6.32608 0 2.82232V29.0011C32.5824 19.8523 51.24 36.7511 69.892 26.7983V0.618721" fill="#54A831"></path><path d="M142.792 0.618896H69.8922V26.7165H142.792V0.618896Z" fill="#0065A1"></path><path d="M8.29204 19.7337H5.55084V9.59249H8.16844V10.8289C8.4549 10.3382 8.88724 9.94911 9.40524 9.71569C9.94289 9.44689 10.5353 9.30589 11.1364 9.30369C12.6066 9.30369 13.6096 9.86703 14.1456 10.9937C14.4826 10.4512 14.9583 10.0084 15.5236 9.71134C16.0889 9.41423 16.7233 9.2735 17.3612 9.30369C18.3227 9.27797 19.2569 9.62496 19.9684 10.2721C20.6759 10.9182 21.0298 11.8802 21.03 13.1581V19.7333H18.3712V13.7149C18.3959 13.2129 18.2385 12.7189 17.928 12.3237C17.757 12.1402 17.5468 11.9976 17.3131 11.9066C17.0794 11.8156 16.8281 11.7785 16.578 11.7981C16.3228 11.7883 16.0686 11.835 15.8336 11.9348C15.5985 12.0345 15.3883 12.1849 15.218 12.3753C14.872 12.7668 14.6878 13.2753 14.7028 13.7977V19.7337H11.9828V13.7149C12.0073 13.2112 11.8459 12.7161 11.5292 12.3237C11.3591 12.142 11.1505 12.0005 10.9188 11.9096C10.6871 11.8187 10.438 11.7806 10.1896 11.7981C9.93206 11.7865 9.67506 11.8313 9.43653 11.9292C9.19799 12.027 8.98366 12.1757 8.80844 12.3649C8.45895 12.7585 8.27446 13.2716 8.29324 13.7977L8.29204 19.7337Z" fill="white"></path><path d="M24.565 10.8085C25.5891 9.82955 26.9513 9.2832 28.368 9.2832C29.7848 9.2832 31.1469 9.82955 32.171 10.8085C33.1447 11.8558 33.686 13.2329 33.686 14.6629C33.686 16.0929 33.1447 17.47 32.171 18.5173C31.1469 19.4963 29.7848 20.0426 28.368 20.0426C26.9513 20.0426 25.5891 19.4963 24.565 18.5173C23.5913 17.47 23.0501 16.0929 23.0501 14.6629C23.0501 13.2329 23.5913 11.8558 24.565 10.8085ZM26.5438 16.7861C26.7822 17.0277 27.0663 17.2196 27.3794 17.3505C27.6926 17.4814 28.0286 17.5488 28.368 17.5488C28.7075 17.5488 29.0435 17.4814 29.3567 17.3505C29.6698 17.2196 29.9538 17.0277 30.1922 16.7861C30.679 16.1856 30.9447 15.4361 30.9447 14.6631C30.9447 13.8901 30.679 13.1406 30.1922 12.5401C29.9538 12.2985 29.6698 12.1067 29.3567 11.9757C29.0435 11.8448 28.7075 11.7774 28.368 11.7774C28.0286 11.7774 27.6926 11.8448 27.3794 11.9757C27.0663 12.1067 26.7822 12.2985 26.5438 12.5401C26.0573 13.1407 25.7917 13.8902 25.7917 14.6631C25.7917 15.4361 26.0573 16.1855 26.5438 16.7861Z" fill="white"></path><path d="M38.5912 13.8996V19.7328H35.85V9.59202H38.5112V10.8496C38.7994 10.3554 39.2306 9.96012 39.748 9.71602C40.2739 9.4573 40.8524 9.32329 41.4384 9.32441C41.9492 9.29102 42.4608 9.37486 42.9342 9.56954C43.4076 9.76421 43.8301 10.0646 44.1696 10.4476C44.8193 11.2694 45.1521 12.2974 45.1072 13.344V19.7336H42.3656V13.8196C42.3907 13.2922 42.2263 12.7732 41.902 12.3564C41.5259 11.9922 41.0207 11.7919 40.4972 11.7994C39.9736 11.8069 39.4744 12.0216 39.1088 12.3964C38.757 12.8166 38.5727 13.3519 38.5912 13.8996Z" fill="white"></path><path d="M54.6898 16.1468L56.9778 16.8268C56.7083 17.7539 56.1393 18.5656 55.3598 19.1352C54.4878 19.7614 53.4326 20.0803 52.3598 20.042C51.6743 20.0563 50.9929 19.9332 50.3557 19.6801C49.7185 19.4271 49.1383 19.0491 48.6494 18.5684C47.6757 17.507 47.1322 16.1209 47.1248 14.6806C47.1174 13.2402 47.6467 11.8487 48.6094 10.7772C49.0597 10.301 49.6032 9.92259 50.2061 9.66549C50.809 9.4084 51.4584 9.27814 52.1138 9.28284C53.6802 9.28284 54.9069 9.7495 55.7938 10.6828C56.6807 11.6162 57.1239 12.901 57.1234 14.5372C57.1234 14.6474 57.1201 14.7711 57.1134 14.9084C57.1062 15.046 57.103 15.1556 57.103 15.2376L57.0822 15.382H49.8254C49.8333 15.6964 49.9071 16.0057 50.042 16.2897C50.1769 16.5738 50.3699 16.8264 50.6086 17.0312C51.0945 17.4679 51.7282 17.7037 52.3814 17.6908C53.5491 17.6922 54.3186 17.1775 54.6898 16.1468ZM49.8874 13.5068H54.4222C54.4069 12.9729 54.1894 12.4646 53.8138 12.0848C53.5909 11.881 53.3288 11.7248 53.0436 11.6255C52.7583 11.5263 52.4558 11.4862 52.1546 11.5076C51.8586 11.4958 51.5633 11.5445 51.2868 11.6509C51.0103 11.7572 50.7584 11.9189 50.5466 12.126C50.1589 12.4862 49.923 12.9805 49.887 13.5084L49.8874 13.5068Z" fill="white"></path><path d="M62.6464 23.7325H59.7404L62.1312 18.4561L57.8232 9.59253H60.8948L63.5948 15.5289L66.09 9.59253H69.0168L62.6464 23.7325Z" fill="white"></path><path d="M76.1053 11.8464C75.7633 11.8389 75.4235 11.9029 75.1076 12.0343C74.7917 12.1658 74.5067 12.3617 74.2709 12.6096C73.7892 13.199 73.5269 13.9372 73.5288 14.6984C73.5307 15.4597 73.7967 16.1966 74.2813 16.7836C74.5181 17.0337 74.8045 17.2317 75.1222 17.3647C75.4398 17.4978 75.7818 17.5631 76.1261 17.5564C76.6862 17.5854 77.2371 17.4055 77.6722 17.0516C78.0444 16.7338 78.3164 16.3149 78.4553 15.8456L80.867 16.6492C80.6054 17.6057 80.0413 18.4519 79.2589 19.0612C78.3669 19.7572 77.2572 20.115 76.1266 20.0712C75.4185 20.0838 74.7152 19.9529 74.0591 19.6865C73.4029 19.42 72.8075 19.0235 72.3087 18.5209C71.8099 18.0182 71.418 17.4197 71.1566 16.7616C70.8952 16.1034 70.7697 15.3991 70.7878 14.6912C70.7654 13.9795 70.8881 13.2708 71.1485 12.6081C71.409 11.9455 71.8016 11.3428 72.3026 10.8368C72.7882 10.3395 73.3709 9.94752 74.0145 9.68514C74.6582 9.42275 75.3489 9.29559 76.0438 9.31159C77.1864 9.26344 78.3098 9.61729 79.2186 10.3116C80.0038 10.9184 80.5626 11.7713 80.8053 12.7336L78.3526 13.558C78.2491 13.0488 77.9642 12.5944 77.5508 12.2796C77.1375 11.9647 76.6238 11.8108 76.1053 11.8464Z" fill="white"></path><path d="M83.5357 10.8363C84.5598 9.85737 85.922 9.31104 87.3387 9.31104C88.7555 9.31104 90.1176 9.85737 91.1417 10.8363C92.1154 11.8837 92.6567 13.2608 92.6567 14.6909C92.6567 16.121 92.1154 17.4981 91.1417 18.5455C90.1176 19.5245 88.7555 20.0708 87.3387 20.0708C85.922 20.0708 84.5598 19.5245 83.5357 18.5455C82.562 17.4981 82.0208 16.121 82.0208 14.6909C82.0208 13.2608 82.562 11.8837 83.5357 10.8363ZM85.5145 16.8139C85.753 17.0554 86.037 17.2472 86.3502 17.3781C86.6633 17.509 86.9993 17.5763 87.3387 17.5763C87.6781 17.5763 88.0141 17.509 88.3273 17.3781C88.6404 17.2472 88.9245 17.0554 89.1629 16.8139C89.6495 16.2133 89.9151 15.4638 89.9151 14.6907C89.9151 13.9177 89.6495 13.1682 89.1629 12.5675C88.9245 12.326 88.6404 12.1343 88.3273 12.0034C88.0141 11.8725 87.6781 11.8052 87.3387 11.8052C86.9993 11.8052 86.6633 11.8725 86.3502 12.0034C86.037 12.1343 85.753 12.326 85.5145 12.5675C85.0279 13.1682 84.7624 13.9177 84.7624 14.6907C84.7624 15.4638 85.0279 16.2133 85.5145 16.8139Z" fill="white"></path><path d="M97.5626 13.9276V19.7608H94.8226V9.62038H97.4814V10.8776C97.7696 10.3834 98.2008 9.98813 98.7182 9.74398C99.244 9.48542 99.8222 9.35142 100.408 9.35238C100.919 9.31895 101.431 9.40278 101.904 9.59746C102.377 9.79214 102.8 10.0925 103.139 10.4756C103.789 11.2972 104.122 12.325 104.077 13.3716V19.7612H101.335V13.8476C101.36 13.3201 101.195 12.801 100.871 12.3844C100.495 12.0201 99.9894 11.8197 99.4659 11.8272C98.9424 11.8347 98.4432 12.0495 98.0778 12.4244C97.7266 12.8448 97.5431 13.3801 97.5626 13.9276Z" fill="white"></path><path d="M110.239 6.59031V9.62031H112.279V12.0527H110.239V16.2987C110.222 16.4616 110.239 16.6261 110.289 16.7821C110.338 16.9381 110.42 17.0822 110.527 17.2055C110.785 17.4053 111.109 17.5008 111.434 17.4731C111.718 17.4825 112.002 17.4548 112.279 17.3907V19.6579C111.785 19.839 111.26 19.9229 110.733 19.9051C110.306 19.9279 109.878 19.8658 109.475 19.7226C109.072 19.5793 108.701 19.3576 108.384 19.0703C108.088 18.7684 107.858 18.4081 107.709 18.0123C107.56 17.6166 107.495 17.1942 107.518 16.7719V12.0519H105.683V9.61951H106.199C106.413 9.63397 106.628 9.60185 106.829 9.52535C107.03 9.44886 107.213 9.32979 107.363 9.17631C107.64 8.85333 107.784 8.4366 107.763 8.01151V6.58911L110.239 6.59031Z" fill="white"></path><path d="M120.648 9.57916V12.3412C120.377 12.2867 120.101 12.2591 119.824 12.2588C119.129 12.2271 118.448 12.4674 117.927 12.9288C117.446 13.3754 117.206 14.1072 117.207 15.124V19.7616H114.466V9.62037H117.125V11.1252C117.619 10.0673 118.581 9.53823 120.011 9.53796C120.16 9.53796 120.373 9.5517 120.648 9.57916Z" fill="white"></path><path d="M123.235 10.8363C124.259 9.85736 125.621 9.31104 127.037 9.31104C128.454 9.31104 129.816 9.85736 130.84 10.8363C131.814 11.8836 132.355 13.2608 132.355 14.6909C132.355 16.1211 131.814 17.4982 130.84 18.5455C129.816 19.5245 128.454 20.0708 127.037 20.0708C125.621 20.0708 124.259 19.5245 123.235 18.5455C122.261 17.4982 121.719 16.1211 121.719 14.6909C121.719 13.2608 122.261 11.8836 123.235 10.8363ZM125.213 16.8139C125.452 17.0554 125.736 17.2472 126.049 17.378C126.362 17.5089 126.698 17.5763 127.038 17.5763C127.377 17.5763 127.713 17.5089 128.026 17.378C128.339 17.2472 128.623 17.0554 128.862 16.8139C129.348 16.2133 129.614 15.4637 129.614 14.6907C129.614 13.9177 129.348 13.1681 128.862 12.5675C128.623 12.326 128.339 12.1343 128.026 12.0034C127.713 11.8725 127.377 11.8051 127.038 11.8051C126.698 11.8051 126.362 11.8725 126.049 12.0034C125.736 12.1343 125.452 12.326 125.213 12.5675C124.727 13.168 124.461 13.9176 124.461 14.6907C124.461 15.4638 124.727 16.2134 125.213 16.8139Z" fill="white"></path><path d="M137.261 19.7616H134.52V4.83838H137.261V19.7616Z" fill="white"></path></svg>