<svg width="32" height="32" viewBox="0 0 32 32" fill="none" xmlns="http://www.w3.org/2000/svg">
<g clip-path="url(#clip0_730_2463)">
<path d="M16.019 31.9979H15.9951C13.901 31.9979 12.1973 30.2941 12.1973 28.1999V27.3125C12.1973 26.7947 12.617 26.375 13.1347 26.375H18.8794C19.3972 26.375 19.8169 26.7947 19.8169 27.3125V28.1999C19.8169 30.2942 18.1131 31.9979 16.019 31.9979Z" fill="url(#paint0_linear_730_2463)"/>
<path d="M18.8782 26.375H16.0059V31.9979H16.0178C18.112 31.9979 19.8157 30.2941 19.8157 28.1999V27.3125C19.8157 26.7947 19.3959 26.375 18.8782 26.375Z" fill="url(#paint1_linear_730_2463)"/>
<path d="M17.8807 5.85899H14.1328C13.615 5.85899 13.1953 5.43926 13.1953 4.92152V2.81141C13.1953 1.26115 14.4565 0 16.0067 0C17.5569 0 18.8181 1.26121 18.8181 2.81141V4.92152C18.8182 5.43926 18.3985 5.85899 17.8807 5.85899Z" fill="url(#paint2_linear_730_2463)"/>
<path d="M17.8798 5.85899C18.3975 5.85899 18.8173 5.43926 18.8173 4.92152V2.81141C18.8173 1.26115 17.5561 0 16.0059 0V5.85899H17.8798Z" fill="url(#paint3_linear_730_2463)"/>
<path d="M25.9391 28.2492H6.07119C5.25978 28.2492 4.59961 27.589 4.59961 26.7776V25.4373C4.59876 23.9714 5.14101 22.5571 6.12168 21.4675C6.79269 20.7219 7.16372 19.7542 7.16315 18.7512V12.6778C7.16315 7.80237 11.1296 3.83594 16.005 3.83594C20.8805 3.83594 24.8469 7.80237 24.8469 12.6778V18.7512C24.8464 19.7542 25.2174 20.7219 25.8884 21.4674C26.8691 22.557 27.4114 23.9713 27.4105 25.4372V26.7776C27.4106 27.589 26.7505 28.2492 25.9391 28.2492Z" fill="url(#paint4_linear_730_2463)"/>
<path d="M25.9398 28.2491C26.7512 28.2491 27.4114 27.589 27.4114 26.7776V25.4372C27.4122 23.9713 26.8699 22.557 25.8892 21.4674C25.2182 20.7219 24.8472 19.7542 24.8478 18.7512V12.6778C24.8478 7.80237 20.8813 3.83594 16.0059 3.83594V28.2491H25.9398Z" fill="url(#paint5_linear_730_2463)"/>
<path d="M4.60156 25.4361V26.7764C4.60156 27.5878 5.26173 28.248 6.07314 28.248H25.941C26.7524 28.248 27.4126 27.5878 27.4126 26.7764V25.4361C27.4127 24.7994 27.3105 24.1668 27.1098 23.5625H4.9043C4.7036 24.1668 4.60138 24.7994 4.60156 25.4361Z" fill="url(#paint6_linear_730_2463)"/>
<path d="M16.0059 23.5626V28.248H25.9398C26.7512 28.248 27.4114 27.5878 27.4114 26.7764V25.4361C27.4115 24.7994 27.3093 24.1668 27.1086 23.5625H16.0059V23.5626Z" fill="url(#paint7_linear_730_2463)"/>
<path d="M0.938585 10.3539C0.871768 10.3539 0.805142 10.3467 0.739842 10.3325C0.233734 10.2233 -0.087943 9.72444 0.0213034 9.21834C0.772028 5.74101 2.6879 2.54668 5.41594 0.223696C5.81017 -0.11198 6.40184 -0.0644193 6.73746 0.329693C7.07313 0.72393 7.0257 1.31553 6.63146 1.65121C4.21504 3.70883 2.51835 6.53674 1.85399 9.61401C1.75918 10.0534 1.37057 10.3539 0.938585 10.3539Z" fill="url(#paint8_linear_730_2463)"/>
<path d="M31.0616 10.3538C30.6296 10.3538 30.2411 10.0534 30.1462 9.61401C29.4818 6.53674 27.7852 3.70883 25.3688 1.65128C24.9746 1.3156 24.9271 0.723934 25.2628 0.32976C25.5984 -0.0644771 26.19 -0.111976 26.5843 0.223763C29.3124 2.54662 31.2282 5.74102 31.9789 9.21834C32.0881 9.72445 31.7665 10.2233 31.2604 10.3326C31.1937 10.3469 31.1272 10.3538 31.0616 10.3538Z" fill="url(#paint9_linear_730_2463)"/>
<path d="M4.54216 11.4507C4.48472 11.4507 4.42647 11.4454 4.36798 11.4344C3.85912 11.3388 3.52419 10.8488 3.61981 10.34C4.13436 7.60192 5.57731 5.07275 7.68274 3.21838C8.07123 2.87608 8.66365 2.91376 9.00582 3.30225C9.34806 3.6908 9.31044 4.28316 8.92195 4.62533C7.12882 6.20472 5.90018 8.35714 5.46244 10.6862C5.37782 11.1366 4.98427 11.4507 4.54216 11.4507Z" fill="url(#paint10_linear_730_2463)"/>
<path d="M27.4573 11.4506C27.0151 11.4506 26.6216 11.1365 26.537 10.6861C26.0993 8.35716 24.8707 6.20467 23.0776 4.62534C22.6891 4.2831 22.6516 3.69075 22.9937 3.3022C23.336 2.91371 23.9283 2.87615 24.3169 3.21833C26.4222 5.0727 27.8651 7.60181 28.3796 10.3398C28.4752 10.8486 28.1403 11.3386 27.6314 11.4342C27.573 11.4453 27.5147 11.4506 27.4573 11.4506Z" fill="url(#paint11_linear_730_2463)"/>
</g>
<defs>
<linearGradient id="paint0_linear_730_2463" x1="12.1973" y1="29.1864" x2="19.8169" y2="29.1864" gradientUnits="userSpaceOnUse">
<stop stop-color="#F9F490"/>
<stop offset="0.254808" stop-color="#E4AB40"/>
<stop offset="0.75" stop-color="#FEFBA5"/>
<stop offset="1" stop-color="#BD894E"/>
</linearGradient>
<linearGradient id="paint1_linear_730_2463" x1="16.0059" y1="29.1864" x2="19.8157" y2="29.1864" gradientUnits="userSpaceOnUse">
<stop stop-color="#F9F490"/>
<stop offset="0.254808" stop-color="#E4AB40"/>
<stop offset="0.75" stop-color="#FEFBA5"/>
<stop offset="1" stop-color="#BD894E"/>
</linearGradient>
<linearGradient id="paint2_linear_730_2463" x1="13.1953" y1="2.9295" x2="18.8181" y2="2.9295" gradientUnits="userSpaceOnUse">
<stop stop-color="#F9F490"/>
<stop offset="0.254808" stop-color="#E4AB40"/>
<stop offset="0.75" stop-color="#FEFBA5"/>
<stop offset="1" stop-color="#BD894E"/>
</linearGradient>
<linearGradient id="paint3_linear_730_2463" x1="16.0059" y1="2.9295" x2="18.8173" y2="2.9295" gradientUnits="userSpaceOnUse">
<stop stop-color="#F9F490"/>
<stop offset="0.254808" stop-color="#E4AB40"/>
<stop offset="0.75" stop-color="#FEFBA5"/>
<stop offset="1" stop-color="#BD894E"/>
</linearGradient>
<linearGradient id="paint4_linear_730_2463" x1="4.59961" y1="16.0426" x2="27.4105" y2="16.0426" gradientUnits="userSpaceOnUse">
<stop stop-color="#F9F490"/>
<stop offset="0.254808" stop-color="#E4AB40"/>
<stop offset="0.75" stop-color="#FEFBA5"/>
<stop offset="1" stop-color="#BD894E"/>
</linearGradient>
<linearGradient id="paint5_linear_730_2463" x1="16.0059" y1="16.0425" x2="27.4114" y2="16.0425" gradientUnits="userSpaceOnUse">
<stop stop-color="#F9F490"/>
<stop offset="0.254808" stop-color="#E4AB40"/>
<stop offset="0.75" stop-color="#FEFBA5"/>
<stop offset="1" stop-color="#BD894E"/>
</linearGradient>
<linearGradient id="paint6_linear_730_2463" x1="4.60156" y1="25.9052" x2="27.4126" y2="25.9052" gradientUnits="userSpaceOnUse">
<stop stop-color="#F9F490"/>
<stop offset="0.254808" stop-color="#E4AB40"/>
<stop offset="0.75" stop-color="#FEFBA5"/>
<stop offset="1" stop-color="#BD894E"/>
</linearGradient>
<linearGradient id="paint7_linear_730_2463" x1="16.0059" y1="25.9052" x2="27.4114" y2="25.9052" gradientUnits="userSpaceOnUse">
<stop stop-color="#F9F490"/>
<stop offset="0.254808" stop-color="#E4AB40"/>
<stop offset="0.75" stop-color="#FEFBA5"/>
<stop offset="1" stop-color="#BD894E"/>
</linearGradient>
<linearGradient id="paint8_linear_730_2463" x1="0" y1="5.17693" x2="6.96119" y2="5.17693" gradientUnits="userSpaceOnUse">
<stop stop-color="#F9F490"/>
<stop offset="0.254808" stop-color="#E4AB40"/>
<stop offset="0.75" stop-color="#FEFBA5"/>
<stop offset="1" stop-color="#BD894E"/>
</linearGradient>
<linearGradient id="paint9_linear_730_2463" x1="25.0391" y1="5.1769" x2="32.0002" y2="5.1769" gradientUnits="userSpaceOnUse">
<stop stop-color="#F9F490"/>
<stop offset="0.254808" stop-color="#E4AB40"/>
<stop offset="0.75" stop-color="#FEFBA5"/>
<stop offset="1" stop-color="#BD894E"/>
</linearGradient>
<linearGradient id="paint10_linear_730_2463" x1="3.60352" y1="7.21755" x2="9.2398" y2="7.21755" gradientUnits="userSpaceOnUse">
<stop stop-color="#F9F490"/>
<stop offset="0.254808" stop-color="#E4AB40"/>
<stop offset="0.75" stop-color="#FEFBA5"/>
<stop offset="1" stop-color="#BD894E"/>
</linearGradient>
<linearGradient id="paint11_linear_730_2463" x1="22.7598" y1="7.2175" x2="28.3959" y2="7.2175" gradientUnits="userSpaceOnUse">
<stop stop-color="#F9F490"/>
<stop offset="0.254808" stop-color="#E4AB40"/>
<stop offset="0.75" stop-color="#FEFBA5"/>
<stop offset="1" stop-color="#BD894E"/>
</linearGradient>
<clipPath id="clip0_730_2463">
<rect width="32" height="32" fill="white"/>
</clipPath>
</defs>
</svg>
